# xmcd
#
# Track frame offsets:
#	150
#	24257
#	38937
#	55527
#	77835
#	94540
#	114095
#	147840
#	158887
#	167547
#	177262
#	201372
#
# Disc length: 3259 seconds
#
# Revision: 3
# Processed by: cddbd v1.5.2PL0 Copyright (c) Steve Scherf et al.
# Submitted via: audiograbber 1.83.01
#
DISCID=8b0cb90c
DTITLE=Down The Dirt Road  - The Songs Of Charley Patton
DYEAR=2001
DGENRE=Blues
TTITLE0=Steve James - Elder Greene Blues
TTITLE1=Graham Parker - Poor Me
TTITLE2=Charlie Musselwhite - Pea Vine Blues
TTITLE3=Snooky Pryor - Pony Blues
TTITLE4=Paul Rishell and Annie Raines - I Shall Not Be Moved
TTITLE5=Guy Davis - Some Of These Days
TTITLE6=Joe Louis Walker - Sugar Mama
TTITLE7=Dave Van Ronk - Mississippi Bo Weavil Blues
TTITLE8=Corey Harris - Moon Going Down
TTITLE9=Steve James - Shake It And Break It
TTITLE10=Kid Bangham - Some Summer Day
TTITLE11=Colleen Sexton - Down The Dirt Road Blues - When Your Way Gets Dark
EXTD=YEAR: 2001
EXTT0=
EXTT1=
EXTT2=
EXTT3=
EXTT4=
EXTT5=
EXTT6=
EXTT7=
EXTT8=
EXTT9=
EXTT10=
EXTT11=
PLAYORDER=
